<svg version="1.1" xmlns="http://www.w3.org/2000/svg" viewBox="0 0 154 26">
<path fill="#1e1852" d="M8.533 0h8.533c4.713 0 8.533 3.821 8.533 8.533v8.533c0 4.713-3.82 8.533-8.533 8.533h-8.533c-4.713 0-8.533-3.82-8.533-8.533v-8.533c0-4.713 3.821-8.533 8.533-8.533z"></path>
<path fill="#1e1852" d="M40.533 0h8.533c4.713 0 8.533 3.821 8.533 8.533v8.533c0 4.713-3.821 8.533-8.533 8.533h-8.533c-4.713 0-8.533-3.82-8.533-8.533v-8.533c0-4.713 3.821-8.533 8.533-8.533z"></path>
<path fill="#1e1852" d="M72.533 0h8.533c4.713 0 8.533 3.821 8.533 8.533v8.533c0 4.713-3.82 8.533-8.533 8.533h-8.533c-4.713 0-8.533-3.82-8.533-8.533v-8.533c0-4.713 3.82-8.533 8.533-8.533z"></path>
<path fill="#1e1852" d="M104.533 0h8.533c4.713 0 8.533 3.821 8.533 8.533v8.533c0 4.713-3.82 8.533-8.533 8.533h-8.533c-4.713 0-8.533-3.82-8.533-8.533v-8.533c0-4.713 3.82-8.533 8.533-8.533z"></path>
<path fill="#1e1852" d="M136.533 0h8.533c4.713 0 8.533 3.821 8.533 8.533v8.533c0 4.713-3.821 8.533-8.533 8.533h-8.533c-4.713 0-8.533-3.82-8.533-8.533v-8.533c0-4.713 3.821-8.533 8.533-8.533z"></path>
</svg>
